<?xml version="1.0" encoding="utf-8"?>
<svg xmlns="http://www.w3.org/2000/svg" viewBox="0 0 30 30" width="480" height="480">
  <path d="M6 2C5.448 2 5 2.448 5 3C5 3.552 5.448 4 6 4C6.552 4 7 3.552 7 3C7 2.448 6.552 2 6 2 z M 24 2C23.448 2 23 2.448 23 3C23 3.552 23.448 4 24 4C24.552 4 25 3.552 25 3C25 2.448 24.552 2 24 2 z M 12 3C10.895 3 10 3.895 10 5C10 5.017 10.005859 5.0337812 10.005859 5.0507812C9.8378594 5.0317812 9.673 5 9.5 5C7.015 5 5 7.015 5 9.5C5 9.971 5.0915625 10.415797 5.2265625 10.841797C3.8845625 11.738797 3 13.265 3 15C3 16.735 3.8845625 18.261203 5.2265625 19.158203C5.0915625 19.584203 5 20.029 5 20.5C5 22.83 6.777875 24.722125 9.046875 24.953125C9.260875 26.116125 10.275 27 11.5 27C12.881 27 14 25.881 14 24.5L14 24C14 22.897 13.103 22 12 22C11.447 22 11 21.552 11 21C11 20.448 11.447 20 12 20C12.732 20 13.409 20.212641 14 20.556641L14 11.970703C13.165 12.610703 12.131 13 11 13C10.447 13 10 12.552 10 12C10 11.448 10.447 11 11 11C12.654 11 14 9.654 14 8L14 5C14 3.895 13.105 3 12 3 z M 18 3C16.895 3 16 3.895 16 5L16 8C16 9.654 17.346 11 19 11C19.553 11 20 11.448 20 12C20 12.552 19.553 13 19 13C17.869 13 16.835 12.611656 16 11.972656L16 24.5C16 25.881 17.119 27 18.5 27C19.725 27 20.739125 26.116125 20.953125 24.953125C23.170125 24.727125 24.905375 22.911297 24.984375 20.654297C24.362375 20.874297 23.697 21 23 21C22.447 21 22 20.552 22 20C22 19.448 22.447 19 23 19C25.206 19 27 17.206 27 15C27 13.265 26.115437 11.738797 24.773438 10.841797C24.908438 10.415797 25 9.971 25 9.5C25 7.015 22.985 5 20.5 5C20.327 5 20.162141 5.0317812 19.994141 5.0507812C19.994141 5.0337812 20 5.017 20 5C20 3.895 19.105 3 18 3 z M 2 7C1.448 7 1 7.448 1 8C1 8.552 1.448 9 2 9C2.552 9 3 8.552 3 8C3 7.448 2.552 7 2 7 z M 28 7C27.448 7 27 7.448 27 8C27 8.552 27.448 9 28 9C28.552 9 29 8.552 29 8C29 7.448 28.552 7 28 7 z M 1 14C0.448 14 0 14.448 0 15C0 15.552 0.448 16 1 16C1.552 16 2 15.552 2 15C2 14.448 1.552 14 1 14 z M 29 14C28.448 14 28 14.448 28 15C28 15.552 28.448 16 29 16C29.552 16 30 15.552 30 15C30 14.448 29.552 14 29 14 z M 2 21C1.448 21 1 21.448 1 22C1 22.552 1.448 23 2 23C2.552 23 3 22.552 3 22C3 21.448 2.552 21 2 21 z M 28 21C27.448 21 27 21.448 27 22C27 22.552 27.448 23 28 23C28.552 23 29 22.552 29 22C29 21.448 28.552 21 28 21 z M 6 26C5.448 26 5 26.448 5 27C5 27.552 5.448 28 6 28C6.552 28 7 27.552 7 27C7 26.448 6.552 26 6 26 z M 24 26C23.448 26 23 26.448 23 27C23 27.552 23.448 28 24 28C24.552 28 25 27.552 25 27C25 26.448 24.552 26 24 26 z" fill="#fff" />
</svg>