<svg xmlns="http://www.w3.org/2000/svg" xmlns:xlink="http://www.w3.org/1999/xlink" width="202" height="154" viewBox="0 0 202 154">
  <defs>
    <clipPath id="clip-path">
      <rect width="202" height="154" fill="none"/>
    </clipPath>
  </defs>
  <g id="Grille_de_répétition_4" data-name="Grille de répétition 4" opacity="0.1" clip-path="url(#clip-path)">
    <g transform="translate(-422 -1721)">
      <rect id="Rectangle_12" data-name="Rectangle 12" width="33" height="33" transform="translate(422 1721)" fill="#8d9aae"/>
    </g>
    <g transform="translate(-369 -1721)">
      <rect id="Rectangle_12-2" data-name="Rectangle 12" width="33" height="33" transform="translate(422 1721)" fill="#8d9aae"/>
    </g>
    <g transform="translate(-316 -1721)">
      <rect id="Rectangle_12-3" data-name="Rectangle 12" width="33" height="33" transform="translate(422 1721)" fill="#8d9aae"/>
    </g>
    <g transform="translate(-263 -1721)">
      <rect id="Rectangle_12-4" data-name="Rectangle 12" width="33" height="33" transform="translate(422 1721)" fill="#8d9aae"/>
    </g>
    <g transform="translate(-422 -1668)">
      <rect id="Rectangle_12-5" data-name="Rectangle 12" width="33" height="33" transform="translate(422 1721)" fill="#8d9aae"/>
    </g>
    <g transform="translate(-369 -1668)">
      <rect id="Rectangle_12-6" data-name="Rectangle 12" width="33" height="33" transform="translate(422 1721)" fill="#8d9aae"/>
    </g>
    <g transform="translate(-316 -1668)">
      <rect id="Rectangle_12-7" data-name="Rectangle 12" width="33" height="33" transform="translate(422 1721)" fill="#8d9aae"/>
    </g>
    <g transform="translate(-263 -1668)">
      <rect id="Rectangle_12-8" data-name="Rectangle 12" width="33" height="33" transform="translate(422 1721)" fill="#8d9aae"/>
    </g>
    <g transform="translate(-422 -1615)">
      <rect id="Rectangle_12-9" data-name="Rectangle 12" width="33" height="33" transform="translate(422 1721)" fill="#8d9aae"/>
    </g>
    <g transform="translate(-369 -1615)">
      <rect id="Rectangle_12-10" data-name="Rectangle 12" width="33" height="33" transform="translate(422 1721)" fill="#8d9aae"/>
    </g>
    <g transform="translate(-316 -1615)">
      <rect id="Rectangle_12-11" data-name="Rectangle 12" width="33" height="33" transform="translate(422 1721)" fill="#8d9aae"/>
    </g>
    <g transform="translate(-263 -1615)">
      <rect id="Rectangle_12-12" data-name="Rectangle 12" width="33" height="33" transform="translate(422 1721)" fill="#8d9aae"/>
    </g>
  </g>
</svg>
