<?xml version="1.0" encoding="utf-8"?>
<svg xmlns="http://www.w3.org/2000/svg" viewBox="0 0 50 50" width="500" height="500">
  <path d="M25 1C16.178 1 9 8.178 9 17C9 31.114 23.625047 47.950156 24.248047 48.660156C24.438047 48.876156 24.712 49 25 49L25.003906 49C25.293906 48.999 25.568812 48.871344 25.757812 48.652344C26.380812 47.930344 41 30.813 41 17C41 8.178 33.822 1 25 1 z M 25 8C29.632527 8 33.443436 11.500357 33.941406 16L29.898438 16C29.433596 13.720904 27.414363 12 25 12C22.585637 12 20.566404 13.720904 20.101562 16L16.058594 16C16.556564 11.500357 20.367473 8 25 8 z M 25 14C26.654 14 28 15.346 28 17C28 18.654 26.654 20 25 20C23.346 20 22 18.654 22 17C22 15.346 23.346 14 25 14 z M 16.058594 18L20.101562 18C20.566404 20.279096 22.585637 22 25 22C27.414363 22 29.433596 20.279096 29.898438 18L33.941406 18C33.443436 22.499643 29.632527 26 25 26C20.367473 26 16.556564 22.499643 16.058594 18 z" fill="#fff" />
</svg>