<?xml version="1.0" encoding="utf-8"?>
<svg xmlns="http://www.w3.org/2000/svg" viewBox="0 0 64 64" width="512" height="512">
  <linearGradient id="K4hMWMrS_9NMj1G8sBNvKa" x1="16" x2="16" y1="27" y2="37" gradientUnits="userSpaceOnUse" spreadMethod="reflect">
    <stop offset="0" stop-color="#6dc7ff" />
    <stop offset="1" stop-color="#e6abff" />
  </linearGradient>
  <path fill="url(#K4hMWMrS_9NMj1G8sBNvKa)" d="M19.524,27.475l0.45,9C19.988,36.761,19.76,37,19.474,37H18.48 c-0.268,0-0.488-0.211-0.5-0.479L17.75,31l-1.173,2.155c-0.249,0.457-0.905,0.457-1.154,0L14.25,31l-0.23,5.521 C14.009,36.789,13.788,37,13.52,37h-0.995c-0.286,0-0.514-0.239-0.499-0.525l0.45-9C12.49,27.209,12.709,27,12.976,27h1.214 c0.19,0,0.363,0.108,0.448,0.278L16,30.024l1.362-2.746C17.447,27.108,17.62,27,17.81,27h1.214 C19.291,27,19.51,27.209,19.524,27.475z" />
  <linearGradient id="K4hMWMrS_9NMj1G8sBNvKb" x1="32" x2="32" y1="1402" y2="1353.493" gradientTransform="matrix(1 0 0 -1 0 1410)" gradientUnits="userSpaceOnUse" spreadMethod="reflect">
    <stop offset="0" stop-color="#1a6dff" />
    <stop offset="1" stop-color="#c822ff" />
  </linearGradient>
  <path fill="url(#K4hMWMrS_9NMj1G8sBNvKb)" d="M51,8H14c-2.757,0-5,2.243-5,5v38c0,2.757,2.243,5,5,5h37c2.757,0,4-2.243,4-5V13 C55,10.243,53.757,8,51,8z M53,51c0,1.654-0.346,3-2,3H14c-1.654,0-3-1.346-3-3V13c0-1.654,1.346-3,3-3h37c1.654,0,2,1.346,2,3V51z" />
  <linearGradient id="K4hMWMrS_9NMj1G8sBNvKc" x1="48" x2="48" y1="27" y2="37" gradientUnits="userSpaceOnUse" spreadMethod="reflect">
    <stop offset="0" stop-color="#6dc7ff" />
    <stop offset="1" stop-color="#e6abff" />
  </linearGradient>
  <path fill="url(#K4hMWMrS_9NMj1G8sBNvKc)" d="M50.5,37H47c-1.105,0-2-0.895-2-2v-7.5c0-0.276,0.224-0.5,0.5-0.5h1 c0.276,0,0.5,0.224,0.5,0.5v7c0,0.276,0.224,0.5,0.5,0.5h3c0.276,0,0.5,0.224,0.5,0.5v1C51,36.776,50.776,37,50.5,37z" />
  <linearGradient id="K4hMWMrS_9NMj1G8sBNvKd" x1="32" x2="32" y1="27" y2="37" gradientUnits="userSpaceOnUse" spreadMethod="reflect">
    <stop offset="0" stop-color="#6dc7ff" />
    <stop offset="1" stop-color="#e6abff" />
  </linearGradient>
  <path fill="url(#K4hMWMrS_9NMj1G8sBNvKd)" d="M33,37h-3.5c-0.276,0-0.5-0.224-0.5-0.5v-1c0-0.276,0.224-0.5,0.5-0.5H33v-2h-2 c-1.105,0-2-0.895-2-2v-2c0-1.105,0.895-2,2-2h2.5c0.276,0,0.5,0.224,0.5,0.5v1c0,0.276-0.224,0.5-0.5,0.5H31v2h2 c1.105,0,2,0.895,2,2v2C35,36.105,34.105,37,33,37z" />
  <linearGradient id="K4hMWMrS_9NMj1G8sBNvKe" x1="40.262" x2="40.262" y1="27" y2="38" gradientUnits="userSpaceOnUse" spreadMethod="reflect">
    <stop offset="0" stop-color="#6dc7ff" />
    <stop offset="1" stop-color="#e6abff" />
  </linearGradient>
  <path fill="url(#K4hMWMrS_9NMj1G8sBNvKe)" d="M43.422,37.198l-0.99-1.302c0.35-0.36,0.568-0.85,0.568-1.391V29c0-1.105-0.895-2-2-2h-2 c-1.105,0-2,0.895-2,2v6c0,1.105,0.895,2,2,2h1.766l0.54,0.706C41.448,37.891,41.668,38,41.902,38h1.122 C43.437,38,43.672,37.527,43.422,37.198z M39,34.5v-5c0-0.276,0.224-0.5,0.5-0.5h1c0.276,0,0.5,0.224,0.5,0.5v5 c0,0.276-0.224,0.5-0.5,0.5h-1C39.224,35,39,34.776,39,34.5z" />
  <linearGradient id="K4hMWMrS_9NMj1G8sBNvKf" x1="24.145" x2="24.145" y1="29" y2="38" gradientUnits="userSpaceOnUse" spreadMethod="reflect">
    <stop offset="0" stop-color="#6dc7ff" />
    <stop offset="1" stop-color="#e6abff" />
  </linearGradient>
  <path fill="url(#K4hMWMrS_9NMj1G8sBNvKf)" d="M26.5,29h-1c-0.276,0-0.5,0.224-0.5,0.5V32h-0.77c-0.238,0-0.444-0.168-0.49-0.402 L23.3,29.402C23.254,29.168,23.048,29,22.81,29h-1.02c-0.316,0-0.552,0.289-0.49,0.598l0.559,2.794 C22.045,33.327,22.866,34,23.82,34H25v1c0,0.552-0.448,1-1,1h-1.5c-0.276,0-0.5,0.224-0.5,0.5v1c0,0.276,0.224,0.5,0.5,0.5H24 c1.657,0,3-1.343,3-3v-1v-1v-3.5C27,29.224,26.776,29,26.5,29z" />
</svg>